<svg width="682" height="166" viewBox="0 0 682 166" fill="none" xmlns="http://www.w3.org/2000/svg">
<path d="M173.202 148.895H142.153L116.432 60.8932H115.881L90.1602 148.895H58.9278L22 18.8212H55.8045L76.3812 105.354H76.9324L100.081 18.8212H132.783L156.116 105.354H156.667L177.611 18.8212H210.313L173.202 148.895Z" fill="black"/>
<path d="M388 128.261C382.487 134.595 375.684 139.639 367.591 143.392C359.498 147.029 350.173 148.847 339.616 148.847C329.998 148.847 321.084 147.263 312.874 144.096C304.78 140.929 297.743 136.472 291.761 130.724C285.779 124.859 281.087 117.88 277.686 109.786C274.284 101.692 272.583 92.7776 272.583 83.0418C272.583 73.0713 274.284 64.0392 277.686 55.9456C281.204 47.8519 286.013 40.9899 292.113 35.3595C298.212 29.6118 305.367 25.2131 313.577 22.1633C321.788 19.1135 330.644 17.5886 340.144 17.5886C348.941 17.5886 357.562 19.1722 366.008 22.3392C374.57 25.389 381.49 29.9051 386.768 35.8873L366.359 56.2975C363.544 52.4266 359.85 49.5527 355.275 47.6759C350.701 45.7992 346.009 44.8608 341.2 44.8608C335.922 44.8608 331.054 45.8578 326.597 47.8519C322.257 49.7287 318.504 52.3679 315.337 55.7696C312.17 59.1713 309.707 63.2181 307.947 67.9101C306.188 72.4848 305.308 77.5287 305.308 83.0418C305.308 88.6722 306.188 93.8333 307.947 98.5253C309.707 103.217 312.111 107.264 315.161 110.666C318.328 113.95 322.081 116.531 326.421 118.408C330.761 120.284 335.511 121.223 340.672 121.223C346.654 121.223 351.874 120.05 356.331 117.704C360.788 115.358 364.365 112.308 367.063 108.554L388 128.261Z" fill="black"/>
<path d="M294.81 58.8723C294.81 66.466 293.402 72.8962 290.585 78.1629C287.768 83.3071 283.971 87.4714 279.194 90.6559C274.417 93.8404 268.906 96.1675 262.659 97.6372C256.413 99.107 249.921 99.8419 243.185 99.8419H227.569V148.895H196.152V18.8212H243.92C251.024 18.8212 257.638 19.5561 263.762 21.0259C270.008 22.3732 275.397 24.639 279.929 27.8235C284.583 30.8855 288.196 34.9886 290.768 40.1328C293.463 45.1545 294.81 51.401 294.81 58.8723ZM263.394 59.056C263.394 55.994 262.782 53.4831 261.557 51.5234C260.332 49.5638 258.679 48.0328 256.596 46.9304C254.514 45.8281 252.126 45.0932 249.431 44.7258C246.859 44.3584 244.165 44.1746 241.348 44.1746H227.569V74.8559H240.797C243.736 74.8559 246.553 74.611 249.248 74.121C251.942 73.6311 254.331 72.7738 256.413 71.549C258.617 70.3242 260.332 68.7319 261.557 66.7722C262.782 64.6901 263.394 62.118 263.394 59.056Z" fill="black"/>
<path d="M419.228 17.684H424.472L429.678 37.444H429.754L435.682 17.684H440.622L446.436 37.444H446.512L451.832 17.684H456.924L449.058 44.588H444.422L438.114 24.41H438.038L431.73 44.588H427.094L419.228 17.684Z" fill="black"/>
<path d="M460.112 17.684H477.934V21.864H464.9V28.704H477.25V32.732H464.9V40.332H478.618V44.588H460.112V17.684Z" fill="black"/>
<path d="M497.024 23.308C496.517 22.6493 495.795 22.1047 494.858 21.674C493.946 21.218 493.021 20.99 492.084 20.99C491.526 20.99 490.969 21.066 490.412 21.218C489.854 21.3447 489.348 21.56 488.892 21.864C488.436 22.1427 488.056 22.5227 487.752 23.004C487.473 23.46 487.334 24.0173 487.334 24.676C487.334 25.284 487.46 25.8033 487.714 26.234C487.967 26.6647 488.309 27.032 488.74 27.336C489.196 27.64 489.74 27.906 490.374 28.134C491.007 28.362 491.704 28.59 492.464 28.818C493.325 29.0967 494.212 29.4133 495.124 29.768C496.061 30.1227 496.91 30.5913 497.67 31.174C498.455 31.7567 499.088 32.4913 499.57 33.378C500.076 34.2647 500.33 35.3667 500.33 36.684C500.33 38.128 500.064 39.3947 499.532 40.484C499 41.548 498.29 42.4347 497.404 43.144C496.517 43.8533 495.478 44.3853 494.288 44.74C493.097 45.0947 491.843 45.272 490.526 45.272C488.778 45.272 487.068 44.9553 485.396 44.322C483.724 43.6633 482.356 42.7007 481.292 41.434L484.712 38.242C485.37 39.154 486.244 39.876 487.334 40.408C488.448 40.94 489.538 41.206 490.602 41.206C491.159 41.206 491.729 41.1427 492.312 41.016C492.894 40.864 493.414 40.6233 493.87 40.294C494.351 39.9647 494.731 39.5593 495.01 39.078C495.314 38.5713 495.466 37.9507 495.466 37.216C495.466 36.5067 495.301 35.924 494.972 35.468C494.642 34.9867 494.199 34.5813 493.642 34.252C493.084 33.8973 492.426 33.5933 491.666 33.34C490.906 33.0867 490.108 32.8207 489.272 32.542C488.461 32.2887 487.65 31.9847 486.84 31.63C486.029 31.2753 485.294 30.8067 484.636 30.224C484.002 29.6413 483.483 28.932 483.078 28.096C482.672 27.2347 482.47 26.1707 482.47 24.904C482.47 23.536 482.748 22.358 483.306 21.37C483.888 20.382 484.636 19.5713 485.548 18.938C486.485 18.2793 487.536 17.798 488.702 17.494C489.892 17.1647 491.096 17 492.312 17C493.68 17 495.06 17.2407 496.454 17.722C497.872 18.2033 499.101 18.9253 500.14 19.888L497.024 23.308Z" fill="black"/>
<path d="M509.966 21.864H501.72V17.684H523V21.864H514.754V44.588H509.966V21.864Z" fill="black"/>
<path d="M421.964 69.684H430.742C432.287 69.684 433.681 69.8233 434.922 70.102C436.163 70.3807 437.227 70.8367 438.114 71.47C439.001 72.1033 439.685 72.914 440.166 73.902C440.647 74.89 440.888 76.0807 440.888 77.474C440.888 78.9687 440.609 80.2227 440.052 81.236C439.495 82.2493 438.735 83.0727 437.772 83.706C436.835 84.314 435.733 84.7573 434.466 85.036C433.199 85.3147 431.857 85.454 430.438 85.454H426.752V96.588H421.964V69.684ZM430.096 81.426C430.881 81.426 431.629 81.3753 432.338 81.274C433.047 81.1473 433.681 80.9447 434.238 80.666C434.795 80.362 435.239 79.9567 435.568 79.45C435.897 78.9433 436.062 78.2847 436.062 77.474C436.062 76.6887 435.897 76.0553 435.568 75.574C435.239 75.0673 434.795 74.6747 434.238 74.396C433.706 74.1173 433.085 73.94 432.376 73.864C431.692 73.7627 430.983 73.712 430.248 73.712H426.752V81.426H430.096Z" fill="black"/>
<path d="M451.33 69.684H455.472L467.062 96.588H461.59L459.082 90.432H447.416L444.984 96.588H439.626L451.33 69.684ZM457.41 86.328L453.268 75.384L449.05 86.328H457.41Z" fill="black"/>
<path d="M469.724 69.684H479.072C480.338 69.684 481.567 69.8233 482.758 70.102C483.948 70.3553 485 70.786 485.912 71.394C486.849 72.002 487.596 72.8 488.154 73.788C488.711 74.776 488.99 75.9793 488.99 77.398C488.99 79.3487 488.432 80.9447 487.318 82.186C486.228 83.402 484.734 84.2253 482.834 84.656L490.016 96.588H484.24L478.008 85.188H474.512V96.588H469.724V69.684ZM478.426 81.274C479.11 81.274 479.794 81.2233 480.478 81.122C481.162 81.0207 481.77 80.8307 482.302 80.552C482.859 80.2733 483.315 79.8807 483.67 79.374C484.024 78.842 484.202 78.1707 484.202 77.36C484.202 76.6253 484.037 76.03 483.708 75.574C483.378 75.0927 482.96 74.7127 482.454 74.434C481.947 74.1553 481.364 73.9653 480.706 73.864C480.072 73.7627 479.452 73.712 478.844 73.712H474.512V81.274H478.426Z" fill="black"/>
<path d="M493.622 69.684H498.41V96.588H493.622V69.684Z" fill="black"/>
<path d="M518.065 75.308C517.558 74.6493 516.836 74.1047 515.899 73.674C514.987 73.218 514.062 72.99 513.125 72.99C512.567 72.99 512.01 73.066 511.453 73.218C510.895 73.3447 510.389 73.56 509.933 73.864C509.477 74.1427 509.097 74.5227 508.793 75.004C508.514 75.46 508.375 76.0173 508.375 76.676C508.375 77.284 508.501 77.8033 508.755 78.234C509.008 78.6647 509.35 79.032 509.781 79.336C510.237 79.64 510.781 79.906 511.415 80.134C512.048 80.362 512.745 80.59 513.505 80.818C514.366 81.0967 515.253 81.4133 516.165 81.768C517.102 82.1227 517.951 82.5913 518.711 83.174C519.496 83.7567 520.129 84.4913 520.611 85.378C521.117 86.2647 521.371 87.3667 521.371 88.684C521.371 90.128 521.105 91.3947 520.573 92.484C520.041 93.548 519.331 94.4347 518.445 95.144C517.558 95.8533 516.519 96.3853 515.329 96.74C514.138 97.0947 512.884 97.272 511.567 97.272C509.819 97.272 508.109 96.9553 506.437 96.322C504.765 95.6633 503.397 94.7007 502.333 93.434L505.753 90.242C506.411 91.154 507.285 91.876 508.375 92.408C509.489 92.94 510.579 93.206 511.643 93.206C512.2 93.206 512.77 93.1427 513.353 93.016C513.935 92.864 514.455 92.6233 514.911 92.294C515.392 91.9647 515.772 91.5593 516.051 91.078C516.355 90.5713 516.507 89.9507 516.507 89.216C516.507 88.5067 516.342 87.924 516.013 87.468C515.683 86.9867 515.24 86.5813 514.683 86.252C514.125 85.8973 513.467 85.5933 512.707 85.34C511.947 85.0867 511.149 84.8207 510.313 84.542C509.502 84.2887 508.691 83.9847 507.881 83.63C507.07 83.2753 506.335 82.8067 505.677 82.224C505.043 81.6413 504.524 80.932 504.119 80.096C503.713 79.2347 503.511 78.1707 503.511 76.904C503.511 75.536 503.789 74.358 504.347 73.37C504.929 72.382 505.677 71.5713 506.589 70.938C507.526 70.2793 508.577 69.798 509.743 69.494C510.933 69.1647 512.137 69 513.353 69C514.721 69 516.101 69.2407 517.495 69.722C518.913 70.2033 520.142 70.9253 521.181 71.888L518.065 75.308Z" fill="black"/>
<path d="M441.382 127.992C440.673 127.029 439.748 126.333 438.608 125.902C437.468 125.446 436.353 125.218 435.264 125.218C433.871 125.218 432.604 125.471 431.464 125.978C430.324 126.485 429.336 127.181 428.5 128.068C427.689 128.955 427.056 129.993 426.6 131.184C426.169 132.375 425.954 133.667 425.954 135.06C425.954 136.529 426.169 137.872 426.6 139.088C427.031 140.304 427.639 141.355 428.424 142.242C429.235 143.103 430.197 143.775 431.312 144.256C432.427 144.737 433.681 144.978 435.074 144.978C436.518 144.978 437.797 144.699 438.912 144.142C440.027 143.559 440.926 142.799 441.61 141.862L445.448 144.56C444.257 146.055 442.801 147.22 441.078 148.056C439.355 148.867 437.341 149.272 435.036 149.272C432.933 149.272 430.995 148.93 429.222 148.246C427.474 147.537 425.967 146.561 424.7 145.32C423.433 144.053 422.445 142.559 421.736 140.836C421.027 139.088 420.672 137.163 420.672 135.06C420.672 132.907 421.039 130.969 421.774 129.246C422.534 127.498 423.56 126.016 424.852 124.8C426.169 123.584 427.715 122.647 429.488 121.988C431.261 121.329 433.187 121 435.264 121C436.125 121 437.025 121.089 437.962 121.266C438.899 121.418 439.799 121.671 440.66 122.026C441.521 122.355 442.332 122.773 443.092 123.28C443.852 123.787 444.498 124.395 445.03 125.104L441.382 127.992Z" fill="black"/>
<path d="M446.686 135.06C446.686 132.907 447.04 130.969 447.75 129.246C448.484 127.498 449.485 126.016 450.752 124.8C452.044 123.584 453.564 122.647 455.312 121.988C457.085 121.329 459.01 121 461.088 121C463.19 121 465.128 121.329 466.902 121.988C468.675 122.647 470.208 123.584 471.5 124.8C472.792 126.016 473.792 127.498 474.502 129.246C475.236 130.969 475.604 132.907 475.604 135.06C475.604 137.163 475.236 139.088 474.502 140.836C473.792 142.559 472.792 144.053 471.5 145.32C470.208 146.561 468.675 147.537 466.902 148.246C465.128 148.93 463.19 149.272 461.088 149.272C459.01 149.272 457.085 148.93 455.312 148.246C453.564 147.537 452.044 146.561 450.752 145.32C449.485 144.053 448.484 142.559 447.75 140.836C447.04 139.088 446.686 137.163 446.686 135.06ZM451.892 135.06C451.892 136.504 452.107 137.834 452.538 139.05C452.994 140.241 453.627 141.279 454.438 142.166C455.274 143.053 456.249 143.749 457.364 144.256C458.504 144.737 459.758 144.978 461.126 144.978C462.494 144.978 463.748 144.737 464.888 144.256C466.028 143.749 467.003 143.053 467.814 142.166C468.65 141.279 469.283 140.241 469.714 139.05C470.17 137.834 470.398 136.504 470.398 135.06C470.398 133.667 470.17 132.375 469.714 131.184C469.283 129.993 468.662 128.955 467.852 128.068C467.041 127.181 466.066 126.485 464.926 125.978C463.786 125.471 462.519 125.218 461.126 125.218C459.732 125.218 458.466 125.471 457.326 125.978C456.211 126.485 455.248 127.181 454.438 128.068C453.627 128.955 452.994 129.993 452.538 131.184C452.107 132.375 451.892 133.667 451.892 135.06Z" fill="black"/>
<path d="M480.226 121.684H486.572L499.074 141.824H499.15V121.684H503.938V148.588H497.858L485.09 127.802H485.014V148.588H480.226V121.684Z" fill="black"/>
<path d="M523.594 127.308C523.087 126.649 522.365 126.105 521.428 125.674C520.516 125.218 519.591 124.99 518.654 124.99C518.097 124.99 517.539 125.066 516.982 125.218C516.425 125.345 515.918 125.56 515.462 125.864C515.006 126.143 514.626 126.523 514.322 127.004C514.043 127.46 513.904 128.017 513.904 128.676C513.904 129.284 514.031 129.803 514.284 130.234C514.537 130.665 514.879 131.032 515.31 131.336C515.766 131.64 516.311 131.906 516.944 132.134C517.577 132.362 518.274 132.59 519.034 132.818C519.895 133.097 520.782 133.413 521.694 133.768C522.631 134.123 523.48 134.591 524.24 135.174C525.025 135.757 525.659 136.491 526.14 137.378C526.647 138.265 526.9 139.367 526.9 140.684C526.9 142.128 526.634 143.395 526.102 144.484C525.57 145.548 524.861 146.435 523.974 147.144C523.087 147.853 522.049 148.385 520.858 148.74C519.667 149.095 518.413 149.272 517.096 149.272C515.348 149.272 513.638 148.955 511.966 148.322C510.294 147.663 508.926 146.701 507.862 145.434L511.282 142.242C511.941 143.154 512.815 143.876 513.904 144.408C515.019 144.94 516.108 145.206 517.172 145.206C517.729 145.206 518.299 145.143 518.882 145.016C519.465 144.864 519.984 144.623 520.44 144.294C520.921 143.965 521.301 143.559 521.58 143.078C521.884 142.571 522.036 141.951 522.036 141.216C522.036 140.507 521.871 139.924 521.542 139.468C521.213 138.987 520.769 138.581 520.212 138.252C519.655 137.897 518.996 137.593 518.236 137.34C517.476 137.087 516.678 136.821 515.842 136.542C515.031 136.289 514.221 135.985 513.41 135.63C512.599 135.275 511.865 134.807 511.206 134.224C510.573 133.641 510.053 132.932 509.648 132.096C509.243 131.235 509.04 130.171 509.04 128.904C509.04 127.536 509.319 126.358 509.876 125.37C510.459 124.382 511.206 123.571 512.118 122.938C513.055 122.279 514.107 121.798 515.272 121.494C516.463 121.165 517.666 121 518.882 121C520.25 121 521.631 121.241 523.024 121.722C524.443 122.203 525.671 122.925 526.71 123.888L523.594 127.308Z" fill="black"/>
<path d="M553.128 138.708C553.128 140.329 552.85 141.799 552.292 143.116C551.735 144.408 550.975 145.51 550.012 146.422C549.05 147.334 547.91 148.043 546.592 148.55C545.275 149.031 543.844 149.272 542.298 149.272C540.753 149.272 539.322 149.031 538.004 148.55C536.687 148.043 535.534 147.334 534.546 146.422C533.584 145.51 532.824 144.408 532.266 143.116C531.734 141.799 531.468 140.329 531.468 138.708V121.684H536.256V138.518C536.256 139.303 536.358 140.089 536.56 140.874C536.763 141.634 537.092 142.318 537.548 142.926C538.03 143.534 538.65 144.028 539.41 144.408C540.196 144.788 541.158 144.978 542.298 144.978C543.438 144.978 544.388 144.788 545.148 144.408C545.934 144.028 546.554 143.534 547.01 142.926C547.492 142.318 547.834 141.634 548.036 140.874C548.239 140.089 548.34 139.303 548.34 138.518V121.684H553.128V138.708Z" fill="black"/>
<path d="M558.823 121.684H563.611V144.332H575.049V148.588H558.823V121.684Z" fill="black"/>
<path d="M580.4 125.864H572.154V121.684H593.434V125.864H585.188V148.588H580.4V125.864Z" fill="black"/>
<path d="M596.564 121.684H601.352V148.588H596.564V121.684Z" fill="black"/>
<path d="M607.288 121.684H613.634L626.136 141.824H626.212V121.684H631V148.588H624.92L612.152 127.802H612.076V148.588H607.288V121.684Z" fill="black"/>
<path d="M660.499 147.182C659.131 147.841 657.623 148.347 655.977 148.702C654.355 149.082 652.481 149.272 650.353 149.272C648.174 149.272 646.185 148.93 644.387 148.246C642.588 147.537 641.043 146.561 639.751 145.32C638.459 144.053 637.445 142.559 636.711 140.836C636.001 139.088 635.647 137.163 635.647 135.06C635.647 132.907 636.014 130.969 636.749 129.246C637.509 127.498 638.535 126.016 639.827 124.8C641.144 123.584 642.689 122.647 644.463 121.988C646.236 121.329 648.161 121 650.239 121C652.392 121 654.355 121.317 656.129 121.95C657.927 122.558 659.371 123.369 660.461 124.382L657.155 127.954C656.471 127.194 655.508 126.548 654.267 126.016C653.051 125.484 651.721 125.218 650.277 125.218C648.858 125.218 647.566 125.471 646.401 125.978C645.261 126.485 644.285 127.181 643.475 128.068C642.664 128.955 642.031 129.993 641.575 131.184C641.144 132.375 640.929 133.667 640.929 135.06C640.929 136.504 641.144 137.834 641.575 139.05C642.031 140.241 642.664 141.279 643.475 142.166C644.311 143.053 645.311 143.749 646.477 144.256C647.667 144.737 649.01 144.978 650.505 144.978C652.557 144.978 654.343 144.661 655.863 144.028V137.188H650.201V133.236H660.499V147.182Z" fill="black"/>
</svg>
