<svg width="498" height="242" viewBox="0 0 498 242" fill="none" xmlns="http://www.w3.org/2000/svg">
<path d="M209.211 203.313H170.358L138.171 93.1891H137.481L105.295 203.313H66.2108L20 40.541H62.3024L88.0517 148.826H88.7414L117.709 40.541H158.632L187.83 148.826H188.52L214.729 40.541H255.652L209.211 203.313Z" fill="black"/>
<path d="M478.001 177.493C471.102 185.42 462.589 191.732 452.461 196.429C442.333 200.979 430.665 203.254 417.454 203.254C405.419 203.254 394.263 201.273 383.989 197.309C373.861 193.346 365.054 187.768 357.569 180.576C350.083 173.236 344.212 164.503 339.955 154.374C335.699 144.246 333.57 133.09 333.57 120.907C333.57 108.43 335.699 97.1275 339.955 86.9992C344.359 76.871 350.376 68.2839 358.009 61.2382C365.642 54.0456 374.595 48.5411 384.87 44.7247C395.144 40.9082 406.226 39 418.115 39C429.123 39 439.912 40.9816 450.48 44.9449C461.195 48.7613 469.855 54.4126 476.46 61.8987L450.92 87.4396C447.397 82.5956 442.774 78.9994 437.049 76.6508C431.325 74.3022 425.454 73.1279 419.436 73.1279C412.831 73.1279 406.74 74.3756 401.162 76.871C395.731 79.2195 391.034 82.5222 387.071 86.7791C383.108 91.0359 380.026 96.1 377.824 101.971C375.622 107.696 374.522 114.008 374.522 120.907C374.522 127.953 375.622 134.411 377.824 140.283C380.026 146.154 383.035 151.218 386.851 155.475C390.814 159.585 395.511 162.815 400.942 165.163C406.373 167.512 412.317 168.686 418.775 168.686C426.261 168.686 432.793 167.218 438.37 164.282C443.948 161.347 448.425 157.53 451.801 152.833L478.001 177.493Z" fill="black"/>
<path d="M361.396 90.6602C361.396 100.163 359.634 108.21 356.108 114.8C352.583 121.237 347.832 126.449 341.854 130.434C335.877 134.419 328.98 137.331 321.163 139.17C313.346 141.009 305.223 141.929 296.793 141.929H277.251V203.313H237.938V40.541H297.713C306.602 40.541 314.879 41.4606 322.542 43.2999C330.359 44.9858 337.103 47.8213 342.774 51.8063C348.598 55.6381 353.12 60.7726 356.338 67.2099C359.71 73.494 361.396 81.3107 361.396 90.6602ZM322.083 90.8901C322.083 87.0583 321.316 83.9163 319.783 81.464C318.251 79.0117 316.182 77.0958 313.576 75.7164C310.97 74.337 307.982 73.4173 304.61 72.9575C301.391 72.4977 298.019 72.2678 294.494 72.2678H277.251V110.662H293.804C297.483 110.662 301.008 110.355 304.38 109.742C307.752 109.129 310.741 108.056 313.346 106.524C316.105 104.991 318.251 102.998 319.783 100.546C321.316 97.9405 322.083 94.7218 322.083 90.8901Z" fill="black"/>
</svg>
