<svg width="809" height="166" viewBox="0 0 809 166" fill="none" xmlns="http://www.w3.org/2000/svg">
<path d="M149.137 146.512H118.512L93.1424 59.7121H92.5988L67.2292 146.512H36.4234L0 18.2148H33.3428L53.6384 103.565H54.182L77.0146 18.2148H109.27L132.284 103.565H132.828L153.486 18.2148H185.741L149.137 146.512Z" fill="black"/>
<path d="M360.996 126.16C355.559 132.408 348.849 137.383 340.866 141.085C332.883 144.672 323.686 146.465 313.274 146.465C303.787 146.465 294.995 144.903 286.896 141.78C278.913 138.656 271.972 134.259 266.072 128.59C260.172 122.805 255.544 115.921 252.189 107.938C248.834 99.955 247.156 91.162 247.156 81.5591C247.156 71.7248 248.834 62.8161 252.189 54.833C255.66 46.8499 260.403 40.0816 266.419 34.5281C272.435 28.859 279.492 24.5203 287.59 21.5122C295.689 18.5041 304.423 17 313.794 17C322.471 17 330.975 18.5619 339.304 21.6857C347.75 24.6939 354.576 29.1482 359.782 35.0488L339.651 55.1801C336.875 51.3621 333.231 48.5275 328.719 46.6764C324.207 44.8252 319.579 43.8996 314.836 43.8996C309.63 43.8996 304.828 44.8831 300.432 46.8499C296.151 48.7011 292.449 51.3043 289.326 54.6595C286.202 58.0147 283.773 62.0063 282.037 66.6342C280.302 71.1464 279.434 76.1213 279.434 81.5591C279.434 87.1126 280.302 92.2033 282.037 96.8312C283.773 101.459 286.144 105.451 289.152 108.806C292.276 112.045 295.978 114.591 300.259 116.442C304.539 118.293 309.225 119.219 314.315 119.219C320.215 119.219 325.364 118.062 329.76 115.748C334.156 113.434 337.685 110.426 340.346 106.723L360.996 126.16Z" fill="black"/>
<path d="M269.091 57.7188C269.091 65.2088 267.702 71.5512 264.924 76.7459C262.145 81.8198 258.4 85.9273 253.689 89.0683C248.977 92.2093 243.541 94.5046 237.38 95.9543C231.218 97.404 224.816 98.1288 218.171 98.1288H202.768V146.512H171.781V18.2148H218.896C225.903 18.2148 232.426 18.9397 238.467 20.3894C244.628 21.7182 249.944 23.9532 254.413 27.0942C259.004 30.1144 262.568 34.1614 265.105 39.2353C267.763 44.1884 269.091 50.3496 269.091 57.7188ZM238.104 57.9C238.104 54.8798 237.5 52.4033 236.292 50.4704C235.084 48.5375 233.453 47.0274 231.4 45.9401C229.346 44.8528 226.99 44.128 224.332 43.7656C221.795 43.4031 219.138 43.2219 216.359 43.2219H202.768V73.4841H215.815C218.715 73.4841 221.493 73.2425 224.151 72.7593C226.809 72.2761 229.165 71.4304 231.218 70.2223C233.393 69.0143 235.084 67.4438 236.292 65.5109C237.5 63.4571 238.104 60.9202 238.104 57.9Z" fill="black"/>
<path d="M399.24 17.68H404.76L410.24 38.48H410.32L416.56 17.68H421.76L427.88 38.48H427.96L433.56 17.68H438.92L430.64 46H425.76L419.12 24.76H419.04L412.4 46H407.52L399.24 17.68ZM442.276 17.68H461.036V22.08H447.316V29.28H460.316V33.52H447.316V41.52H461.756V46H442.276V17.68ZM481.13 23.6C480.597 22.9067 479.837 22.3333 478.85 21.88C477.89 21.4 476.917 21.16 475.93 21.16C475.344 21.16 474.757 21.24 474.17 21.4C473.584 21.5333 473.05 21.76 472.57 22.08C472.09 22.3733 471.69 22.7733 471.37 23.28C471.077 23.76 470.93 24.3467 470.93 25.04C470.93 25.68 471.064 26.2267 471.33 26.68C471.597 27.1333 471.957 27.52 472.41 27.84C472.89 28.16 473.464 28.44 474.13 28.68C474.797 28.92 475.53 29.16 476.33 29.4C477.237 29.6933 478.17 30.0267 479.13 30.4C480.117 30.7733 481.01 31.2667 481.81 31.88C482.637 32.4933 483.304 33.2667 483.81 34.2C484.344 35.1333 484.61 36.2933 484.61 37.68C484.61 39.2 484.33 40.5333 483.77 41.68C483.21 42.8 482.464 43.7333 481.53 44.48C480.597 45.2267 479.504 45.7867 478.25 46.16C476.997 46.5333 475.677 46.72 474.29 46.72C472.45 46.72 470.65 46.3867 468.89 45.72C467.13 45.0267 465.69 44.0133 464.57 42.68L468.17 39.32C468.864 40.28 469.784 41.04 470.93 41.6C472.104 42.16 473.25 42.44 474.37 42.44C474.957 42.44 475.557 42.3733 476.17 42.24C476.784 42.08 477.33 41.8267 477.81 41.48C478.317 41.1333 478.717 40.7067 479.01 40.2C479.33 39.6667 479.49 39.0133 479.49 38.24C479.49 37.4933 479.317 36.88 478.97 36.4C478.624 35.8933 478.157 35.4667 477.57 35.12C476.984 34.7467 476.29 34.4267 475.49 34.16C474.69 33.8933 473.85 33.6133 472.97 33.32C472.117 33.0533 471.264 32.7333 470.41 32.36C469.557 31.9867 468.784 31.4933 468.09 30.88C467.424 30.2667 466.877 29.52 466.45 28.64C466.024 27.7333 465.81 26.6133 465.81 25.28C465.81 23.84 466.104 22.6 466.69 21.56C467.304 20.52 468.09 19.6667 469.05 19C470.037 18.3067 471.144 17.8 472.37 17.48C473.624 17.1333 474.89 16.96 476.17 16.96C477.61 16.96 479.064 17.2133 480.53 17.72C482.024 18.2267 483.317 18.9867 484.41 20L481.13 23.6ZM494.754 22.08H486.074V17.68H508.474V22.08H499.794V46H494.754V22.08ZM402.12 67.68H411.36C412.987 67.68 414.453 67.8267 415.76 68.12C417.067 68.4133 418.187 68.8933 419.12 69.56C420.053 70.2267 420.773 71.08 421.28 72.12C421.787 73.16 422.04 74.4133 422.04 75.88C422.04 77.4533 421.747 78.7733 421.16 79.84C420.573 80.9067 419.773 81.7733 418.76 82.44C417.773 83.08 416.613 83.5467 415.28 83.84C413.947 84.1333 412.533 84.28 411.04 84.28H407.16V96H402.12V67.68ZM410.68 80.04C411.507 80.04 412.293 79.9867 413.04 79.88C413.787 79.7467 414.453 79.5333 415.04 79.24C415.627 78.92 416.093 78.4933 416.44 77.96C416.787 77.4267 416.96 76.7333 416.96 75.88C416.96 75.0533 416.787 74.3867 416.44 73.88C416.093 73.3467 415.627 72.9333 415.04 72.64C414.48 72.3467 413.827 72.16 413.08 72.08C412.36 71.9733 411.613 71.92 410.84 71.92H407.16V80.04H410.68ZM433.031 67.68H437.391L449.591 96H443.831L441.191 89.52H428.911L426.351 96H420.711L433.031 67.68ZM439.431 85.2L435.071 73.68L430.631 85.2H439.431ZM452.393 67.68H462.233C463.567 67.68 464.86 67.8267 466.113 68.12C467.367 68.3867 468.473 68.84 469.433 69.48C470.42 70.12 471.207 70.96 471.793 72C472.38 73.04 472.673 74.3067 472.673 75.8C472.673 77.8533 472.087 79.5333 470.913 80.84C469.767 82.12 468.193 82.9867 466.193 83.44L473.753 96H467.673L461.113 84H457.433V96H452.393V67.68ZM461.553 79.88C462.273 79.88 462.993 79.8267 463.713 79.72C464.433 79.6133 465.073 79.4133 465.633 79.12C466.22 78.8267 466.7 78.4133 467.073 77.88C467.447 77.32 467.633 76.6133 467.633 75.76C467.633 74.9867 467.46 74.36 467.113 73.88C466.767 73.3733 466.327 72.9733 465.793 72.68C465.26 72.3867 464.647 72.1867 463.953 72.08C463.287 71.9733 462.633 71.92 461.993 71.92H457.433V79.88H461.553ZM477.55 67.68H482.59V96H477.55V67.68ZM503.279 73.6C502.745 72.9067 501.985 72.3333 500.999 71.88C500.039 71.4 499.065 71.16 498.079 71.16C497.492 71.16 496.905 71.24 496.319 71.4C495.732 71.5333 495.199 71.76 494.719 72.08C494.239 72.3733 493.839 72.7733 493.519 73.28C493.225 73.76 493.079 74.3467 493.079 75.04C493.079 75.68 493.212 76.2267 493.479 76.68C493.745 77.1333 494.105 77.52 494.559 77.84C495.039 78.16 495.612 78.44 496.279 78.68C496.945 78.92 497.679 79.16 498.479 79.4C499.385 79.6933 500.319 80.0267 501.279 80.4C502.265 80.7733 503.159 81.2667 503.959 81.88C504.785 82.4933 505.452 83.2667 505.959 84.2C506.492 85.1333 506.759 86.2933 506.759 87.68C506.759 89.2 506.479 90.5333 505.919 91.68C505.359 92.8 504.612 93.7333 503.679 94.48C502.745 95.2267 501.652 95.7867 500.399 96.16C499.145 96.5333 497.825 96.72 496.439 96.72C494.599 96.72 492.799 96.3867 491.039 95.72C489.279 95.0267 487.839 94.0133 486.719 92.68L490.319 89.32C491.012 90.28 491.932 91.04 493.079 91.6C494.252 92.16 495.399 92.44 496.519 92.44C497.105 92.44 497.705 92.3733 498.319 92.24C498.932 92.08 499.479 91.8267 499.959 91.48C500.465 91.1333 500.865 90.7067 501.159 90.2C501.479 89.6667 501.639 89.0133 501.639 88.24C501.639 87.4933 501.465 86.88 501.119 86.4C500.772 85.8933 500.305 85.4667 499.719 85.12C499.132 84.7467 498.439 84.4267 497.639 84.16C496.839 83.8933 495.999 83.6133 495.119 83.32C494.265 83.0533 493.412 82.7333 492.559 82.36C491.705 81.9867 490.932 81.4933 490.239 80.88C489.572 80.2667 489.025 79.52 488.599 78.64C488.172 77.7333 487.959 76.6133 487.959 75.28C487.959 73.84 488.252 72.6 488.839 71.56C489.452 70.52 490.239 69.6667 491.199 69C492.185 68.3067 493.292 67.8 494.519 67.48C495.772 67.1333 497.039 66.96 498.319 66.96C499.759 66.96 501.212 67.2133 502.679 67.72C504.172 68.2267 505.465 68.9867 506.559 70L503.279 73.6ZM422.56 124.32C421.813 123.307 420.84 122.573 419.64 122.12C418.44 121.64 417.267 121.4 416.12 121.4C414.653 121.4 413.32 121.667 412.12 122.2C410.92 122.733 409.88 123.467 409 124.4C408.147 125.333 407.48 126.427 407 127.68C406.547 128.933 406.32 130.293 406.32 131.76C406.32 133.307 406.547 134.72 407 136C407.453 137.28 408.093 138.387 408.92 139.32C409.773 140.227 410.787 140.933 411.96 141.44C413.133 141.947 414.453 142.2 415.92 142.2C417.44 142.2 418.787 141.907 419.96 141.32C421.133 140.707 422.08 139.907 422.8 138.92L426.84 141.76C425.587 143.333 424.053 144.56 422.24 145.44C420.427 146.293 418.307 146.72 415.88 146.72C413.667 146.72 411.627 146.36 409.76 145.64C407.92 144.893 406.333 143.867 405 142.56C403.667 141.227 402.627 139.653 401.88 137.84C401.133 136 400.76 133.973 400.76 131.76C400.76 129.493 401.147 127.453 401.92 125.64C402.72 123.8 403.8 122.24 405.16 120.96C406.547 119.68 408.173 118.693 410.04 118C411.907 117.307 413.933 116.96 416.12 116.96C417.027 116.96 417.973 117.053 418.96 117.24C419.947 117.4 420.893 117.667 421.8 118.04C422.707 118.387 423.56 118.827 424.36 119.36C425.16 119.893 425.84 120.533 426.4 121.28L422.56 124.32ZM428.143 131.76C428.143 129.493 428.516 127.453 429.263 125.64C430.036 123.8 431.089 122.24 432.423 120.96C433.783 119.68 435.383 118.693 437.223 118C439.089 117.307 441.116 116.96 443.303 116.96C445.516 116.96 447.556 117.307 449.423 118C451.289 118.693 452.903 119.68 454.263 120.96C455.623 122.24 456.676 123.8 457.423 125.64C458.196 127.453 458.583 129.493 458.583 131.76C458.583 133.973 458.196 136 457.423 137.84C456.676 139.653 455.623 141.227 454.263 142.56C452.903 143.867 451.289 144.893 449.423 145.64C447.556 146.36 445.516 146.72 443.303 146.72C441.116 146.72 439.089 146.36 437.223 145.64C435.383 144.893 433.783 143.867 432.423 142.56C431.089 141.227 430.036 139.653 429.263 137.84C428.516 136 428.143 133.973 428.143 131.76ZM433.623 131.76C433.623 133.28 433.849 134.68 434.303 135.96C434.783 137.213 435.449 138.307 436.303 139.24C437.183 140.173 438.209 140.907 439.383 141.44C440.583 141.947 441.903 142.2 443.343 142.2C444.783 142.2 446.103 141.947 447.303 141.44C448.503 140.907 449.529 140.173 450.383 139.24C451.263 138.307 451.929 137.213 452.383 135.96C452.863 134.68 453.103 133.28 453.103 131.76C453.103 130.293 452.863 128.933 452.383 127.68C451.929 126.427 451.276 125.333 450.423 124.4C449.569 123.467 448.543 122.733 447.343 122.2C446.143 121.667 444.809 121.4 443.343 121.4C441.876 121.4 440.543 121.667 439.343 122.2C438.169 122.733 437.156 123.467 436.303 124.4C435.449 125.333 434.783 126.427 434.303 127.68C433.849 128.933 433.623 130.293 433.623 131.76ZM463.448 117.68H470.128L483.288 138.88H483.368V117.68H488.408V146H482.008L468.568 124.12H468.488V146H463.448V117.68ZM509.099 123.6C508.566 122.907 507.806 122.333 506.819 121.88C505.859 121.4 504.886 121.16 503.899 121.16C503.312 121.16 502.726 121.24 502.139 121.4C501.552 121.533 501.019 121.76 500.539 122.08C500.059 122.373 499.659 122.773 499.339 123.28C499.046 123.76 498.899 124.347 498.899 125.04C498.899 125.68 499.032 126.227 499.299 126.68C499.566 127.133 499.926 127.52 500.379 127.84C500.859 128.16 501.432 128.44 502.099 128.68C502.766 128.92 503.499 129.16 504.299 129.4C505.206 129.693 506.139 130.027 507.099 130.4C508.086 130.773 508.979 131.267 509.779 131.88C510.606 132.493 511.272 133.267 511.779 134.2C512.312 135.133 512.579 136.293 512.579 137.68C512.579 139.2 512.299 140.533 511.739 141.68C511.179 142.8 510.432 143.733 509.499 144.48C508.566 145.227 507.472 145.787 506.219 146.16C504.966 146.533 503.646 146.72 502.259 146.72C500.419 146.72 498.619 146.387 496.859 145.72C495.099 145.027 493.659 144.013 492.539 142.68L496.139 139.32C496.832 140.28 497.752 141.04 498.899 141.6C500.072 142.16 501.219 142.44 502.339 142.44C502.926 142.44 503.526 142.373 504.139 142.24C504.752 142.08 505.299 141.827 505.779 141.48C506.286 141.133 506.686 140.707 506.979 140.2C507.299 139.667 507.459 139.013 507.459 138.24C507.459 137.493 507.286 136.88 506.939 136.4C506.592 135.893 506.126 135.467 505.539 135.12C504.952 134.747 504.259 134.427 503.459 134.16C502.659 133.893 501.819 133.613 500.939 133.32C500.086 133.053 499.232 132.733 498.379 132.36C497.526 131.987 496.752 131.493 496.059 130.88C495.392 130.267 494.846 129.52 494.419 128.64C493.992 127.733 493.779 126.613 493.779 125.28C493.779 123.84 494.072 122.6 494.659 121.56C495.272 120.52 496.059 119.667 497.019 119C498.006 118.307 499.112 117.8 500.339 117.48C501.592 117.133 502.859 116.96 504.139 116.96C505.579 116.96 507.032 117.213 508.499 117.72C509.992 118.227 511.286 118.987 512.379 120L509.099 123.6ZM540.188 135.6C540.188 137.307 539.894 138.853 539.308 140.24C538.721 141.6 537.921 142.76 536.908 143.72C535.894 144.68 534.694 145.427 533.308 145.96C531.921 146.467 530.414 146.72 528.788 146.72C527.161 146.72 525.654 146.467 524.268 145.96C522.881 145.427 521.668 144.68 520.628 143.72C519.614 142.76 518.814 141.6 518.228 140.24C517.668 138.853 517.388 137.307 517.388 135.6V117.68H522.428V135.4C522.428 136.227 522.534 137.053 522.748 137.88C522.961 138.68 523.308 139.4 523.788 140.04C524.294 140.68 524.948 141.2 525.748 141.6C526.574 142 527.588 142.2 528.788 142.2C529.988 142.2 530.988 142 531.788 141.6C532.614 141.2 533.268 140.68 533.748 140.04C534.254 139.4 534.614 138.68 534.828 137.88C535.041 137.053 535.148 136.227 535.148 135.4V117.68H540.188V135.6ZM546.183 117.68H551.223V141.52H563.262V146H546.183V117.68ZM568.895 122.08H560.215V117.68H582.615V122.08H573.935V146H568.895V122.08ZM585.909 117.68H590.949V146H585.909V117.68ZM597.198 117.68H603.878L617.038 138.88H617.118V117.68H622.158V146H615.758L602.318 124.12H602.238V146H597.198V117.68ZM653.209 144.52C651.769 145.213 650.182 145.747 648.449 146.12C646.742 146.52 644.769 146.72 642.529 146.72C640.236 146.72 638.142 146.36 636.249 145.64C634.356 144.893 632.729 143.867 631.369 142.56C630.009 141.227 628.942 139.653 628.169 137.84C627.422 136 627.049 133.973 627.049 131.76C627.049 129.493 627.436 127.453 628.209 125.64C629.009 123.8 630.089 122.24 631.449 120.96C632.836 119.68 634.462 118.693 636.329 118C638.196 117.307 640.222 116.96 642.409 116.96C644.676 116.96 646.742 117.293 648.609 117.96C650.502 118.6 652.022 119.453 653.169 120.52L649.689 124.28C648.969 123.48 647.956 122.8 646.649 122.24C645.369 121.68 643.969 121.4 642.449 121.4C640.956 121.4 639.596 121.667 638.369 122.2C637.169 122.733 636.142 123.467 635.289 124.4C634.436 125.333 633.769 126.427 633.289 127.68C632.836 128.933 632.609 130.293 632.609 131.76C632.609 133.28 632.836 134.68 633.289 135.96C633.769 137.213 634.436 138.307 635.289 139.24C636.169 140.173 637.222 140.907 638.449 141.44C639.702 141.947 641.116 142.2 642.689 142.2C644.849 142.2 646.729 141.867 648.329 141.2V134H642.369V129.84H653.209V144.52Z" fill="black"/>
</svg>
